<?xml version="1.0" encoding="utf-8"?>
<!-- Generator: Adobe Illustrator 22.1.0, SVG Export Plug-In . SVG Version: 6.00 Build 0)  -->
<svg version="1.1" id="katman_1" xmlns="http://www.w3.org/2000/svg" xmlns:xlink="http://www.w3.org/1999/xlink" x="0px" y="0px"
	 viewBox="0 0 134.1 100.8" style="enable-background:new 0 0 134.1 100.8;" xml:space="preserve">
<style type="text/css">
	.st0{fill:#FFFFFF;}
</style>
<g>
	<path id="XMLID_7_" class="st0" d="M62.8,10.5c0,0.1,0,0.1,0,0.2v12L76.7,7.9c4-3.9,9.9-6.1,16.3-6.1h0.7V0.2h-19l-0.1,4.2h-4.5
		C63.9,4.3,62.8,10.5,62.8,10.5z"/>
	<path id="XMLID_6_" class="st0" d="M32.5,99.1c-5.4,0-9.7-4-9.9-9V10.5c0.3-4.9,4.6-8.8,9.9-8.8h2V0H0v1.7h2c5.4,0,9.8,4.1,9.9,9.1
		V90c-0.1,5-4.5,9.1-9.9,9.1H0v1.7h34.5v-1.7H32.5z"/>
	<path id="XMLID_5_" class="st0" d="M81.7,92.3L62.8,71.7l-2.6-2.8L49.5,57.2l-2.6-2.8L40,46.9l6.9-7.3V29.2L28.6,50.8L46.9,71
		l2.6,2.8l10.7,11.8l2.6,2.8l2.6,2.9c2,2.3,4.2,4,6.5,5.3c0.9,0.5,1.8,0.9,2.7,1.3c6.1,2.7,12.2,2.9,15.5,2.9h6.3v-1.7
		C89.1,99,85.7,96.9,81.7,92.3z"/>
	<path id="XMLID_4_" class="st0" d="M39.6,1.8c5.4,0,9.8,4.1,9.9,9.1v15.3v10.7v16.5l10.7,11.7V25.4V13.5v-2.9
		c0-0.4,0.1-0.8,0.1-1.2c0.3-1.7,1.2-3.3,2.4-4.5c0.6-0.6,1.3-1.2,2-1.6c1.5-0.9,3.4-1.5,5.3-1.5h2V0.1H59.4H37.5v1.7H39.6z"/>
	<path id="XMLID_3_" class="st0" d="M119.3,92.3L77.7,46.9l36.6-39.1c4-3.9,9.9-6.1,16.3-6.1h0.7V0.1H97.2v1.6h1.5
		c3.9,0,6.1,3.5,3.7,6.5L66.3,50.7l36.8,40.5c7.9,9,19.6,9.5,24.7,9.5h6.3V99C126.7,99,123.3,96.9,119.3,92.3z"/>
	<path id="XMLID_2_" class="st0" d="M72,99.1h-2c-5.4,0-9.7-4-9.9-9v-0.8L49.4,77.5V90c-0.1,5-4.5,9.1-9.9,9.1h-2v1.7H72v-1.3V99.1z
		"/>
</g>
</svg>
