<?xml version="1.0" encoding="utf-8"?>
<!-- Generator: Adobe Illustrator 22.1.0, SVG Export Plug-In . SVG Version: 6.00 Build 0)  -->
<svg version="1.1" id="katman_1" xmlns="http://www.w3.org/2000/svg" xmlns:xlink="http://www.w3.org/1999/xlink" x="0px" y="0px"
	 viewBox="0 0 134 100.7" style="enable-background:new 0 0 134 100.7;" xml:space="preserve">
<g>
	<path id="XMLID_7_" d="M62.8,10.4c0,0.1,0,0.1,0,0.2v12L76.7,7.7c4-3.9,9.9-6.1,16.3-6.1h0.7V0h-19l-0.1,4.2h-4.5
		C63.9,4.2,62.8,10.4,62.8,10.4z"/>
	<path id="XMLID_6_" d="M32.5,99.1c-5.4,0-9.7-4-9.9-9V10.5c0.3-4.9,4.6-8.8,9.9-8.8h2l0-1.7H0l0,1.7h2c5.4,0,9.8,4.1,9.9,9.1V90
		c-0.1,5-4.5,9.1-9.9,9.1H0l0,1.7h34.5l0-1.7H32.5z"/>
	<path id="XMLID_5_" d="M81.7,92.2L62.8,71.6l-2.6-2.8L49.5,57.1l-2.6-2.8l-6.9-7.5l6.9-7.3V29.1L28.6,50.7l18.3,20.2l2.6,2.8
		l10.7,11.8l2.6,2.8l2.6,2.9c2,2.3,4.2,4,6.5,5.3c0.9,0.5,1.8,0.9,2.7,1.3c6.1,2.7,12.2,2.9,15.5,2.9h6.3V99
		C89.1,98.9,85.7,96.8,81.7,92.2z"/>
	<path id="XMLID_4_" d="M39.6,1.7c5.4,0,9.8,4.1,9.9,9.1v15.3v10.7v16.5L60.2,65V25.3V13.4v-2.9c0-0.4,0.1-0.8,0.1-1.2
		c0.3-1.7,1.2-3.3,2.4-4.5c0.6-0.6,1.3-1.2,2-1.6c1.5-0.9,3.4-1.5,5.3-1.5h2l0-1.7H59.5H37.6l0,1.7H39.6z"/>
	<path id="XMLID_3_" d="M119.3,92.2L77.7,46.8l36.6-39.1c4-3.9,9.9-6.1,16.3-6.1h0.7V0H97.1v1.6h1.5c3.9,0,6.1,3.5,3.7,6.5
		L66.2,50.7L103,91.2c7.9,9,19.6,9.5,24.7,9.5h6.3V99C126.7,98.9,123.3,96.8,119.3,92.2z"/>
	<path id="XMLID_2_" d="M72,99.1h-2c-5.4,0-9.7-4-9.9-9v-0.8L49.5,77.5V90c-0.1,5-4.5,9.1-9.9,9.1h-2l0,1.7h34.5l0-1.3L72,99.1z"/>
</g>
</svg>
