<?xml version="1.0" encoding="utf-8"?>
<!-- Generator: Adobe Illustrator 22.1.0, SVG Export Plug-In . SVG Version: 6.00 Build 0)  -->
<svg version="1.1" id="Layer_3" xmlns="http://www.w3.org/2000/svg" xmlns:xlink="http://www.w3.org/1999/xlink" x="0px" y="0px"
	 viewBox="0 0 309.6 341.2" style="enable-background:new 0 0 309.6 341.2;" xml:space="preserve">
<style type="text/css">
	.st0{fill:url(#SVGID_1_);}
	.st1{fill:url(#SVGID_2_);}
	.st2{fill:url(#SVGID_3_);}
</style>
<g>
	<g>
		<linearGradient id="SVGID_1_" gradientUnits="userSpaceOnUse" x1="234.0424" y1="52.3127" x2="-37.0373" y2="256.586">
			<stop  offset="0" style="stop-color:#FFFFFF"/>
			<stop  offset="1" style="stop-color:#D6D6D6"/>
		</linearGradient>
		<path class="st0" d="M283,124.4L123.8,32.5L80,7.2c-16.7-9.6-36.6-9.6-53.3,0C10,16.9,0,34.2,0,53.4v234.3
			C0,307,10,324.3,26.7,334c8.4,4.8,17.5,7.2,26.7,7.2c9.2,0,18.3-2.4,26.7-7.2l35.1-20.2l48.3-27.9l119.6-69
			c16.7-9.6,26.7-26.9,26.7-46.2C309.6,151.3,299.7,134,283,124.4z M261.6,179.8l-127.9,73.8l-17,9.8l-58,33.5
			c-4.8,2.8-9,0.9-10.6,0c-1.6-0.9-5.3-3.7-5.3-9.2V53.4c0-5.5,3.7-8.3,5.3-9.2c1-0.6,2.9-1.5,5.4-1.5c1.6,0,3.4,0.4,5.2,1.5
			L122.3,81l139.2,80.4c4.8,2.8,5.3,7.3,5.3,9.2C266.9,172.4,266.4,177,261.6,179.8z"/>
	</g>
	<linearGradient id="SVGID_2_" gradientUnits="userSpaceOnUse" x1="-40.8332" y1="196.106" x2="161.2776" y2="290.3518">
		<stop  offset="0" style="stop-color:#FFFFFF"/>
		<stop  offset="1" style="stop-color:#D6D6D6"/>
	</linearGradient>
	<path class="st1" d="M163.4,285.8L80,334c-8.4,4.8-17.5,7.2-26.7,7.2c-9.2,0-18.3-2.4-26.7-7.2C10,324.3,0,307,0,287.8V108.5
		l42.7,46.4v132.8c0,5.5,3.7,8.3,5.3,9.2c1.6,0.9,5.8,2.8,10.6,0l75-43.3L163.4,285.8z"/>
	<linearGradient id="SVGID_3_" gradientUnits="userSpaceOnUse" x1="227.3451" y1="54.533" x2="169.7837" y2="325.3382">
		<stop  offset="0" style="stop-color:#FFFFFF"/>
		<stop  offset="1" style="stop-color:#D6D6D6"/>
	</linearGradient>
	<path class="st2" d="M309.6,170.6c0,19.3-10,36.6-26.7,46.2l-119.6,69l-48.3,27.9l1.6-50.3l17-9.8l127.9-73.8
		c4.8-2.8,5.3-7.3,5.3-9.2c0-1.8-0.5-6.4-5.3-9.2L122.3,81l1.5-48.5L283,124.4C299.7,134,309.6,151.3,309.6,170.6z"/>
</g>
</svg>
