<?xml version="1.0" encoding="utf-8"?>
<!-- Generator: Adobe Illustrator 22.1.0, SVG Export Plug-In . SVG Version: 6.00 Build 0)  -->
<svg version="1.1" id="Layer_1" xmlns="http://www.w3.org/2000/svg" xmlns:xlink="http://www.w3.org/1999/xlink" x="0px" y="0px"
	 viewBox="0 0 58 58" style="enable-background:new 0 0 58 58;" xml:space="preserve">
<style type="text/css">
	.st0{fill:#FFFFFF;}
</style>
<g>
	<polygon class="st0" points="29.2,0 37.5,8.5 49.3,8.5 49.3,25.2 46,21.6 46,12.1 36.3,12.1 29.2,4.8 28,5.8 23.2,5.8 	"/>
	<polygon class="st0" points="58,29.1 49.4,37.5 49.4,49.2 32.8,49.2 36.3,46 45.8,46 45.8,36.2 53.1,29.1 52.1,28 52.1,23.1 	"/>
	<polygon class="st0" points="28.8,58 20.5,49.5 8.7,49.5 8.7,32.9 12,36.4 12,45.9 21.7,45.9 28.8,53.2 30,52.2 34.8,52.2 	"/>
	<polygon class="st0" points="0,28.9 8.5,20.6 8.5,8.8 25.2,8.8 21.6,12.1 12.1,12.1 12.1,21.8 4.8,28.9 5.8,30.1 5.8,34.9 	"/>
	<path class="st0" d="M28.9,14.6l2.8,2.9l1.2,1.2h1.7h4.7v4.8v1.7l1.2,1.2l2.8,2.7l-2.9,3l-1.1,1.2v1.6v4.6h-4.7h-1.7l-1.2,1.3
		l-2.8,3l-2.8-3l-1.2-1.3h-1.7h-4.7v-4.6v-1.6l-1.1-1.2l-2.9-3l2.8-2.7l1.2-1.2v-1.7v-4.8h4.7h1.7l1.2-1.2L28.9,14.6 M28.9,8.8
		l-5.7,6h-8.7v8.8L8.7,29l5.8,5.9v8.6h8.7l5.7,6.1l5.7-6.1h8.7v-8.6L49,29l-5.8-5.5v-8.8h-8.7L28.9,8.8L28.9,8.8z"/>
</g>
</svg>
