<?xml version="1.0" encoding="utf-8"?>
<!-- Generator: Adobe Illustrator 22.1.0, SVG Export Plug-In . SVG Version: 6.00 Build 0)  -->
<svg version="1.1" id="katman_1" xmlns="http://www.w3.org/2000/svg" xmlns:xlink="http://www.w3.org/1999/xlink" x="0px" y="0px"
	 viewBox="0 0 336.9 304" style="enable-background:new 0 0 336.9 304;" xml:space="preserve">
<g>
	<path id="XMLID_35_" d="M156.8,26c0,0.1,0,0.3,0,0.4v30l34.7-37.1c9.9-9.8,24.6-15.2,40.7-15.2h1.7V0h-47.5l-0.2,10.6h-11.2
		C159.7,10.6,156.8,26,156.8,26z"/>
	<path id="XMLID_34_" d="M81.1,247.4c-13.4,0-24.3-10-24.7-22.4V26.2c0.6-12.3,11.4-22,24.7-22H86L86.1,0H0l0.1,4.2h4.9
		c13.5,0,24.4,10.1,24.7,22.7v197.8c-0.3,12.6-11.2,22.7-24.7,22.7H0.1L0,251.6h86.1l-0.1-4.2H81.1z"/>
	<path id="XMLID_33_" d="M204,230.3l-47.3-51.5l-6.4-7l-26.8-29.2l-6.4-7L100.1,117l17.1-18.3v-26l-45.8,53.9l45.8,50.4l6.4,7
		l26.8,29.5l6.4,7l6.6,7.3c5,5.6,10.5,10,16.3,13.2c2.2,1.3,4.4,2.4,6.6,3.3c15.1,6.6,30.5,7.2,38.7,7.2h15.8v-4.2
		C222.5,246.9,214,241.7,204,230.3z"/>
	<path id="XMLID_32_" d="M98.9,4.2c13.5,0,24.4,10.1,24.7,22.7v38.2v26.7v41.3l26.8,29.2V63.2V33.5v-7.3c0.1-1,0.2-2,0.4-3
		c0.8-4.3,2.9-8.2,5.9-11.4c1.5-1.5,3.2-2.9,5-4c3.8-2.3,8.4-3.7,13.3-3.7h4.9L180,0h-31.4H93.9L94,4.2H98.9z"/>
	<path id="XMLID_31_" d="M298,230.3L194,117l91.4-97.7c9.9-9.8,24.6-15.2,40.7-15.2h1.7V0h-85.2v4.1h3.7c9.7,0,15.3,8.9,9.2,16.3
		l-90.2,106.2l92,101.2c19.7,22.5,49,23.7,61.6,23.8h15.8v-4.2C316.4,246.9,307.9,241.7,298,230.3z"/>
	<path id="XMLID_30_" d="M179.9,247.4h-4.9c-13.4,0-24.3-10-24.7-22.4v-2l-26.8-29.5v31.3c-0.3,12.6-11.2,22.7-24.7,22.7H94
		l-0.1,4.2H180l-0.1-3.2L179.9,247.4z"/>
	<g>
		<path d="M10.4,282.2l5.7,7.2c0.8,1,1.5,1.7,2.1,2.1c0.4,0.3,0.9,0.4,1.3,0.4v0.4h-8.5v-0.4c0.5,0,0.9-0.1,1-0.3s0.2-0.3,0.2-0.4
			c0-0.3-0.4-1-1.1-1.9l-3.7-4.7L7,285v4.4c0,0.8,0,1.4,0.1,1.6s0.3,0.4,0.6,0.5c0.3,0.1,0.7,0.2,1.3,0.2v0.4H0.8v-0.4h0.5
			c0.5,0,0.9-0.1,1.1-0.3c0.2-0.1,0.4-0.3,0.5-0.6c0.1-0.2,0.1-0.7,0.1-1.5v-10.7c0-0.8,0-1.4-0.1-1.6c-0.1-0.2-0.3-0.4-0.5-0.5
			c-0.3-0.2-0.6-0.2-1.1-0.2H0.8V276h8.1v0.4c-0.6,0-1,0.1-1.3,0.2c-0.2,0.1-0.4,0.3-0.5,0.6C7,277.4,7,278,7,278.8v5.1l6-4.9
			c0.8-0.7,1.3-1.2,1.3-1.6c0-0.3-0.2-0.5-0.5-0.7c-0.2-0.1-0.6-0.1-1.3-0.2V276h6.4v0.4c-0.6,0-1,0.1-1.3,0.3s-1.1,0.7-2.2,1.7
			L10.4,282.2z"/>
		<path d="M33.2,284.9v4.6c0,0.9,0.1,1.4,0.2,1.7s0.3,0.4,0.6,0.5s0.8,0.2,1.5,0.2v0.4h-8.3v-0.4c0.8,0,1.3-0.1,1.5-0.2
			s0.5-0.3,0.6-0.5s0.2-0.8,0.2-1.7v-10.6c0-0.9-0.1-1.4-0.2-1.7c-0.1-0.2-0.3-0.4-0.6-0.5c-0.3-0.1-0.8-0.2-1.5-0.2V276h7.6
			c2,0,3.4,0.1,4.3,0.4c0.9,0.3,1.7,0.8,2.2,1.5s0.9,1.6,0.9,2.6c0,1.2-0.4,2.2-1.3,3c-0.6,0.5-1.3,0.9-2.3,1.1l3.9,5.5
			c0.5,0.7,0.9,1.2,1.1,1.3c0.3,0.2,0.7,0.4,1.1,0.4v0.4h-5.1l-5.2-7.4H33.2z M33.2,276.9v7.1h0.7c1.1,0,1.9-0.1,2.5-0.3
			c0.6-0.2,1-0.6,1.3-1.1c0.3-0.5,0.5-1.2,0.5-2.1c0-1.2-0.3-2.2-0.9-2.7c-0.6-0.6-1.5-0.9-2.8-0.9H33.2z"/>
		<path d="M60.9,291.8v0.4h-8.5v-0.4h0.5c0.5,0,0.9-0.1,1.1-0.3c0.2-0.1,0.4-0.3,0.5-0.6c0.1-0.2,0.1-0.7,0.1-1.5v-10.7
			c0-0.8,0-1.4-0.1-1.6c-0.1-0.2-0.3-0.4-0.5-0.5s-0.6-0.2-1.1-0.2h-0.5V276h8.5v0.4h-0.5c-0.5,0-0.9,0.1-1.1,0.3
			c-0.2,0.1-0.4,0.3-0.5,0.6c-0.1,0.2-0.1,0.7-0.1,1.5v10.7c0,0.8,0,1.4,0.1,1.6c0.1,0.2,0.3,0.4,0.5,0.5c0.3,0.2,0.6,0.2,1.1,0.2
			H60.9z"/>
		<path d="M80.3,275.6l0.1,5.4H80c-0.2-1.4-0.8-2.5-1.7-3.3c-0.9-0.8-1.9-1.2-2.9-1.2c-0.8,0-1.5,0.2-1.9,0.7
			c-0.5,0.4-0.7,0.9-0.7,1.5c0,0.4,0.1,0.7,0.3,1c0.2,0.4,0.6,0.7,1.1,1.1c0.4,0.3,1.2,0.7,2.6,1.4c1.9,0.9,3.2,1.8,3.9,2.7
			c0.7,0.8,1,1.8,1,2.9c0,1.4-0.5,2.5-1.6,3.5c-1.1,1-2.4,1.5-4,1.5c-0.5,0-1-0.1-1.5-0.2s-1-0.3-1.7-0.6c-0.4-0.2-0.7-0.2-0.9-0.2
			c-0.2,0-0.4,0.1-0.7,0.2s-0.4,0.4-0.6,0.7h-0.4v-6.1h0.4c0.4,1.7,1,3,2,4c1,0.9,2.1,1.4,3.2,1.4c0.9,0,1.6-0.2,2.1-0.7
			c0.5-0.5,0.8-1.1,0.8-1.7c0-0.4-0.1-0.8-0.3-1.1c-0.2-0.4-0.5-0.7-0.9-1c-0.4-0.3-1.2-0.7-2.2-1.3c-1.5-0.7-2.5-1.3-3.2-1.9
			s-1.1-1.1-1.5-1.7c-0.3-0.6-0.5-1.3-0.5-2.1c0-1.3,0.5-2.4,1.4-3.3c1-0.9,2.2-1.4,3.6-1.4c0.5,0,1,0.1,1.5,0.2
			c0.4,0.1,0.8,0.3,1.4,0.5c0.5,0.3,0.9,0.4,1.1,0.4c0.2,0,0.4-0.1,0.5-0.2s0.2-0.4,0.3-0.9H80.3z"/>
		<path d="M105.4,276v4.4h-0.4c-0.3-1-0.5-1.7-0.9-2.2c-0.3-0.4-0.7-0.8-1.3-1.1c-0.3-0.1-0.8-0.2-1.6-0.2H100v12.6
			c0,0.8,0,1.4,0.1,1.6s0.3,0.4,0.5,0.5c0.3,0.2,0.6,0.2,1.1,0.2h0.5v0.4h-8.5v-0.4h0.5c0.5,0,0.9-0.1,1.1-0.3
			c0.2-0.1,0.4-0.3,0.5-0.6c0.1-0.2,0.1-0.7,0.1-1.5v-12.6h-1.2c-1.1,0-1.9,0.2-2.4,0.7c-0.7,0.6-1.1,1.6-1.3,2.8h-0.5V276H105.4z"
			/>
		<path d="M122,287.6h-5.8l-0.7,1.6c-0.2,0.5-0.3,1-0.3,1.3c0,0.5,0.2,0.8,0.6,1c0.2,0.1,0.7,0.2,1.6,0.3v0.4H112v-0.4
			c0.6-0.1,1.1-0.3,1.4-0.7c0.4-0.4,0.8-1.2,1.4-2.5l5.8-13h0.2l5.9,13.4c0.6,1.3,1,2.1,1.4,2.4c0.3,0.2,0.7,0.4,1.2,0.4v0.4h-7.9
			v-0.4h0.3c0.6,0,1.1-0.1,1.3-0.3c0.2-0.1,0.3-0.3,0.3-0.6c0-0.1,0-0.3-0.1-0.4c0-0.1-0.1-0.4-0.4-0.9L122,287.6z M121.6,286.8
			l-2.4-5.6l-2.5,5.6H121.6z"/>
		<path d="M152.5,286.6l-0.6,5.7h-14.5v-0.4h0.5c0.5,0,0.9-0.1,1.1-0.3c0.2-0.1,0.4-0.3,0.5-0.6c0.1-0.2,0.1-0.7,0.1-1.5v-10.7
			c0-0.8,0-1.4-0.1-1.6c-0.1-0.2-0.3-0.4-0.5-0.5c-0.3-0.2-0.6-0.2-1.1-0.2h-0.5V276h8.7v0.4h-0.7c-0.5,0-0.9,0.1-1.1,0.3
			c-0.2,0.1-0.4,0.3-0.5,0.6c-0.1,0.2-0.1,0.7-0.1,1.5v10.4c0,0.8,0,1.4,0.1,1.6c0.1,0.2,0.3,0.4,0.6,0.5c0.2,0.1,0.7,0.1,1.5,0.1
			h1.4c0.9,0,1.6-0.2,2.2-0.5s1.1-0.8,1.5-1.4c0.4-0.7,0.8-1.6,1.2-2.9H152.5z"/>
		<path d="M176.2,286.6l-0.6,5.7h-14.5v-0.4h0.5c0.5,0,0.9-0.1,1.1-0.3c0.2-0.1,0.4-0.3,0.5-0.6c0.1-0.2,0.1-0.7,0.1-1.5v-10.7
			c0-0.8,0-1.4-0.1-1.6c-0.1-0.2-0.3-0.4-0.5-0.5c-0.3-0.2-0.6-0.2-1.1-0.2h-0.5V276h8.7v0.4h-0.7c-0.5,0-0.9,0.1-1.1,0.3
			c-0.2,0.1-0.4,0.3-0.5,0.6c-0.1,0.2-0.1,0.7-0.1,1.5v10.4c0,0.8,0,1.4,0.1,1.6c0.1,0.2,0.3,0.4,0.6,0.5c0.2,0.1,0.7,0.1,1.5,0.1
			h1.4c0.9,0,1.6-0.2,2.2-0.5s1.1-0.8,1.5-1.4c0.4-0.7,0.8-1.6,1.2-2.9H176.2z"/>
		<path d="M206.9,282.2l5.7,7.2c0.8,1,1.5,1.7,2.1,2.1c0.4,0.3,0.9,0.4,1.3,0.4v0.4h-8.5v-0.4c0.5,0,0.9-0.1,1-0.3s0.2-0.3,0.2-0.4
			c0-0.3-0.4-1-1.1-1.9l-3.7-4.7l-0.6,0.5v4.4c0,0.8,0,1.4,0.1,1.6s0.3,0.4,0.6,0.5c0.3,0.1,0.7,0.2,1.3,0.2v0.4h-8.2v-0.4h0.5
			c0.5,0,0.9-0.1,1.1-0.3c0.2-0.1,0.4-0.3,0.5-0.6c0.1-0.2,0.1-0.7,0.1-1.5v-10.7c0-0.8,0-1.4-0.1-1.6c-0.1-0.2-0.3-0.4-0.5-0.5
			c-0.3-0.2-0.6-0.2-1.1-0.2h-0.5V276h8.1v0.4c-0.6,0-1,0.1-1.3,0.2c-0.2,0.1-0.4,0.3-0.5,0.6c-0.1,0.2-0.1,0.7-0.1,1.5v5.1l6-4.9
			c0.8-0.7,1.3-1.2,1.3-1.6c0-0.3-0.2-0.5-0.5-0.7c-0.2-0.1-0.6-0.1-1.3-0.2V276h6.4v0.4c-0.6,0-1,0.1-1.3,0.3s-1.1,0.7-2.2,1.7
			L206.9,282.2z"/>
		<path d="M223.8,276h8.4v0.4h-0.4c-0.6,0-1.1,0.1-1.3,0.2c-0.2,0.1-0.4,0.3-0.5,0.5c-0.1,0.2-0.1,0.8-0.1,1.7v8
			c0,1.5,0.1,2.4,0.3,2.9c0.2,0.5,0.6,0.9,1.1,1.2c0.5,0.3,1.1,0.5,1.9,0.5c0.9,0,1.6-0.2,2.3-0.6c0.6-0.4,1.1-0.9,1.4-1.6
			c0.3-0.7,0.5-1.9,0.5-3.6v-6.6c0-0.7-0.1-1.2-0.2-1.6s-0.3-0.5-0.6-0.6c-0.4-0.2-0.9-0.3-1.5-0.3V276h5.6v0.4h-0.3
			c-0.5,0-0.8,0.1-1.1,0.3c-0.3,0.2-0.5,0.5-0.7,0.8c-0.1,0.3-0.2,0.7-0.2,1.4v6.2c0,1.9-0.1,3.3-0.4,4.1c-0.3,0.8-0.9,1.6-1.8,2.3
			s-2.3,1.1-4,1.1c-1.4,0-2.5-0.2-3.3-0.6c-1-0.5-1.8-1.2-2.2-2c-0.4-0.8-0.6-1.9-0.6-3.2v-8c0-0.9-0.1-1.5-0.2-1.7
			c-0.1-0.2-0.3-0.4-0.5-0.5s-0.7-0.2-1.4-0.2V276z"/>
		<path d="M263.8,286.6l-0.6,5.7h-14.5v-0.4h0.5c0.5,0,0.9-0.1,1.1-0.3c0.2-0.1,0.4-0.3,0.5-0.6c0.1-0.2,0.1-0.7,0.1-1.5v-10.7
			c0-0.8,0-1.4-0.1-1.6c-0.1-0.2-0.3-0.4-0.5-0.5c-0.3-0.2-0.6-0.2-1.1-0.2h-0.5V276h8.7v0.4h-0.7c-0.5,0-0.9,0.1-1.1,0.3
			c-0.2,0.1-0.4,0.3-0.5,0.6c-0.1,0.2-0.1,0.7-0.1,1.5v10.4c0,0.8,0,1.4,0.1,1.6c0.1,0.2,0.3,0.4,0.6,0.5c0.2,0.1,0.7,0.1,1.5,0.1
			h1.4c0.9,0,1.6-0.2,2.2-0.5s1.1-0.8,1.5-1.4c0.4-0.7,0.8-1.6,1.2-2.9H263.8z"/>
		<path d="M285.4,276v4.4h-0.4c-0.3-1-0.5-1.7-0.9-2.2c-0.3-0.4-0.7-0.8-1.3-1.1c-0.3-0.1-0.8-0.2-1.6-0.2H280v12.6
			c0,0.8,0,1.4,0.1,1.6s0.3,0.4,0.5,0.5c0.3,0.2,0.6,0.2,1.1,0.2h0.5v0.4h-8.5v-0.4h0.5c0.5,0,0.9-0.1,1.1-0.3
			c0.2-0.1,0.4-0.3,0.5-0.6c0.1-0.2,0.1-0.7,0.1-1.5v-12.6h-1.2c-1.1,0-1.9,0.2-2.4,0.7c-0.7,0.6-1.1,1.6-1.3,2.8h-0.5V276H285.4z"
			/>
		<path d="M294.2,276h8.4v0.4h-0.4c-0.6,0-1.1,0.1-1.3,0.2c-0.2,0.1-0.4,0.3-0.5,0.5c-0.1,0.2-0.1,0.8-0.1,1.7v8
			c0,1.5,0.1,2.4,0.3,2.9c0.2,0.5,0.6,0.9,1.1,1.2c0.5,0.3,1.1,0.5,1.9,0.5c0.9,0,1.6-0.2,2.3-0.6c0.6-0.4,1.1-0.9,1.4-1.6
			c0.3-0.7,0.5-1.9,0.5-3.6v-6.6c0-0.7-0.1-1.2-0.2-1.6s-0.3-0.5-0.6-0.6c-0.4-0.2-0.9-0.3-1.5-0.3V276h5.6v0.4h-0.3
			c-0.5,0-0.8,0.1-1.1,0.3c-0.3,0.2-0.5,0.5-0.7,0.8c-0.1,0.3-0.2,0.7-0.2,1.4v6.2c0,1.9-0.1,3.3-0.4,4.1c-0.3,0.8-0.9,1.6-1.8,2.3
			s-2.3,1.1-4,1.1c-1.4,0-2.5-0.2-3.3-0.6c-1-0.5-1.8-1.2-2.2-2c-0.4-0.8-0.6-1.9-0.6-3.2v-8c0-0.9-0.1-1.5-0.2-1.7
			c-0.1-0.2-0.3-0.4-0.5-0.5s-0.7-0.2-1.4-0.2V276z"/>
		<path d="M325.3,284.9v4.6c0,0.9,0.1,1.4,0.2,1.7s0.3,0.4,0.6,0.5s0.8,0.2,1.5,0.2v0.4h-8.3v-0.4c0.8,0,1.3-0.1,1.5-0.2
			s0.5-0.3,0.6-0.5s0.2-0.8,0.2-1.7v-10.6c0-0.9-0.1-1.4-0.2-1.7c-0.1-0.2-0.3-0.4-0.6-0.5c-0.3-0.1-0.8-0.2-1.5-0.2V276h7.6
			c2,0,3.4,0.1,4.3,0.4c0.9,0.3,1.7,0.8,2.2,1.5s0.9,1.6,0.9,2.6c0,1.2-0.4,2.2-1.3,3c-0.6,0.5-1.3,0.9-2.3,1.1l3.9,5.5
			c0.5,0.7,0.9,1.2,1.1,1.3c0.3,0.2,0.7,0.4,1.1,0.4v0.4h-5.1l-5.2-7.4H325.3z M325.3,276.9v7.1h0.7c1.1,0,1.9-0.1,2.5-0.3
			c0.6-0.2,1-0.6,1.3-1.1c0.3-0.5,0.5-1.2,0.5-2.1c0-1.2-0.3-2.2-0.9-2.7c-0.6-0.6-1.5-0.9-2.8-0.9H325.3z"/>
	</g>
	<rect x="0.3" y="302" width="336.6" height="2"/>
</g>
</svg>
